# xmcd
#
# Track frame offsets: 
#        150
#        15955
#        34780
#        59210
#        78005
#        98742
#        122807
#
# Disc length: 1891 seconds
#
# Revision: 2
# Processed by: cddbd v1.5.2PL0 Copyright (c) Steve Scherf et al.
# Submitted via: ExactAudioCopy v0.99pb4
#
DISCID=4d076107
DTITLE=Blue By Nature - Blues Is In My Way
DYEAR=1994
DGENRE=Blues
TTITLE0=Cadillac Blues
TTITLE1=One of These Days
TTITLE2=No Matter What I Do
TTITLE3=Wilie Boy's Shuffle
TTITLE4=Good-bye Mr. Jones
TTITLE5=The Blues Is In My Way
TTITLE6=So Many Roads, So Many Trains
EXTD=
EXTT0=
EXTT1=
EXTT2=
EXTT3=
EXTT4=
EXTT5=
EXTT6=
PLAYORDER=
